<svg width="1200" height="400" viewBox="0 0 1200 400" fill="none" xmlns="http://www.w3.org/2000/svg">
  <defs>
    <linearGradient id="bg" x1="0%" y1="0%" x2="100%" y2="100%">
      <stop offset="0%" style="stop-color:#1976d2"/>
      <stop offset="100%" style="stop-color:#0d47a1"/>
    </linearGradient>
  </defs>
  <rect width="1200" height="400" fill="url(#bg)"/>
  
  <!-- INLD Pattern -->
  <g opacity="0.1">
    <circle cx="100" cy="100" r="30" fill="white"/>
    <circle cx="200" cy="50" r="20" fill="white"/>
    <circle cx="300" cy="120" r="25" fill="white"/>
    <circle cx="900" cy="80" r="35" fill="white"/>
    <circle cx="1000" cy="150" r="20" fill="white"/>
    <circle cx="1100" cy="70" r="25" fill="white"/>
  </g>
  
  <!-- Haryana Outline -->
  <g transform="translate(50, 50)" opacity="0.2">
    <path d="M100 50L150 80L180 120L170 160L130 180L80 170L60 130L70 90Z" fill="white"/>
  </g>
  
  <!-- Agricultural Elements -->
  <g opacity="0.15">
    <path d="M500 300L520 280L540 300L560 280L580 300" stroke="white" stroke-width="3" fill="none"/>
    <circle cx="540" cy="260" r="5" fill="white"/>
    <path d="M540 265V320" stroke="white" stroke-width="3"/>
  </g>
</svg>
